ISO-10303-21;
HEADER;
/* Generated by software containing ST-Developer
 * from STEP Tools, Inc. (www.steptools.com) 
 */

FILE_DESCRIPTION(
/* description */ ('STEP AP242 Edition 2'),
/* implementation_level */ '2;1');

FILE_NAME(
/* name */ 'Buttons.step',
/* time_stamp */ '2026-03-26T02:56:02+05:30',
/* author */ (''),
/* organization */ (''),
/* preprocessor_version */ 'ST-DEVELOPER v20.1',
/* originating_system */ 'Autodesk Translation Framework v14.24.0.0',
/* authorisation */ '');

FILE_SCHEMA (('AUTOMOTIVE_DESIGN { 1 0 10303 214 3 1 1 }'));
ENDSEC;

DATA;
#10=MECHANICAL_DESIGN_GEOMETRIC_PRESENTATION_REPRESENTATION('',(#17),#671);
#11=ITEM_DEFINED_TRANSFORMATION($,$,#407,#440);
#12=(
REPRESENTATION_RELATIONSHIP($,$,#682,#681)
REPRESENTATION_RELATIONSHIP_WITH_TRANSFORMATION(#11)
SHAPE_REPRESENTATION_RELATIONSHIP()
);
#13=CONTEXT_DEPENDENT_SHAPE_REPRESENTATION(#12,#680);
#14=NEXT_ASSEMBLY_USAGE_OCCURRENCE('Button:1','Button:1','Button:1',#684,
#685,'Button:1');
#15=SHAPE_REPRESENTATION_RELATIONSHIP('SRR','None',#682,#16);
#16=ADVANCED_BREP_SHAPE_REPRESENTATION('',(#18),#670);
#17=STYLED_ITEM('',(#696),#18);
#18=MANIFOLD_SOLID_BREP('Body1',#393);
#19=CONICAL_SURFACE('',#439,3.8,0.785398163397449);
#20=PLANE('',#420);
#21=PLANE('',#421);
#22=PLANE('',#423);
#23=PLANE('',#424);
#24=PLANE('',#425);
#25=PLANE('',#426);
#26=PLANE('',#427);
#27=PLANE('',#428);
#28=PLANE('',#429);
#29=PLANE('',#430);
#30=PLANE('',#431);
#31=PLANE('',#432);
#32=PLANE('',#433);
#33=PLANE('',#434);
#34=PLANE('',#435);
#35=PLANE('',#436);
#36=PLANE('',#437);
#37=PLANE('',#438);
#38=FACE_OUTER_BOUND('',#58,.T.);
#39=FACE_OUTER_BOUND('',#59,.T.);
#40=FACE_OUTER_BOUND('',#60,.T.);
#41=FACE_OUTER_BOUND('',#61,.T.);
#42=FACE_OUTER_BOUND('',#62,.T.);
#43=FACE_OUTER_BOUND('',#63,.T.);
#44=FACE_OUTER_BOUND('',#64,.T.);
#45=FACE_OUTER_BOUND('',#65,.T.);
#46=FACE_OUTER_BOUND('',#66,.T.);
#47=FACE_OUTER_BOUND('',#67,.T.);
#48=FACE_OUTER_BOUND('',#68,.T.);
#49=FACE_OUTER_BOUND('',#69,.T.);
#50=FACE_OUTER_BOUND('',#70,.T.);
#51=FACE_OUTER_BOUND('',#71,.T.);
#52=FACE_OUTER_BOUND('',#72,.T.);
#53=FACE_OUTER_BOUND('',#73,.T.);
#54=FACE_OUTER_BOUND('',#74,.T.);
#55=FACE_OUTER_BOUND('',#75,.T.);
#56=FACE_OUTER_BOUND('',#76,.T.);
#57=FACE_OUTER_BOUND('',#77,.T.);
#58=EDGE_LOOP('',(#264,#265,#266,#267,#268,#269,#270,#271,#272,#273,#274,
#275,#276,#277,#278,#279,#280,#281,#282,#283,#284));
#59=EDGE_LOOP('',(#285,#286,#287,#288,#289,#290,#291,#292,#293,#294,#295,
#296,#297,#298,#299,#300));
#60=EDGE_LOOP('',(#301));
#61=EDGE_LOOP('',(#302,#303,#304,#305));
#62=EDGE_LOOP('',(#306,#307,#308,#309));
#63=EDGE_LOOP('',(#310,#311,#312,#313));
#64=EDGE_LOOP('',(#314,#315,#316,#317));
#65=EDGE_LOOP('',(#318,#319,#320,#321));
#66=EDGE_LOOP('',(#322,#323,#324,#325));
#67=EDGE_LOOP('',(#326,#327,#328,#329));
#68=EDGE_LOOP('',(#330,#331,#332,#333,#334));
#69=EDGE_LOOP('',(#335,#336,#337,#338));
#70=EDGE_LOOP('',(#339,#340,#341,#342));
#71=EDGE_LOOP('',(#343,#344,#345,#346));
#72=EDGE_LOOP('',(#347,#348,#349,#350));
#73=EDGE_LOOP('',(#351,#352,#353,#354));
#74=EDGE_LOOP('',(#355,#356,#357,#358));
#75=EDGE_LOOP('',(#359,#360,#361,#362));
#76=EDGE_LOOP('',(#363,#364,#365,#366));
#77=EDGE_LOOP('',(#367,#368,#369,#370,#371));
#78=LINE('',#560,#120);
#79=LINE('',#564,#121);
#80=LINE('',#568,#122);
#81=LINE('',#572,#123);
#82=LINE('',#576,#124);
#83=LINE('',#580,#125);
#84=LINE('',#584,#126);
#85=LINE('',#588,#127);
#86=LINE('',#592,#128);
#87=LINE('',#597,#129);
#88=LINE('',#599,#130);
#89=LINE('',#600,#131);
#90=LINE('',#602,#132);
#91=LINE('',#604,#133);
#92=LINE('',#605,#134);
#93=LINE('',#607,#135);
#94=LINE('',#609,#136);
#95=LINE('',#610,#137);
#96=LINE('',#612,#138);
#97=LINE('',#614,#139);
#98=LINE('',#615,#140);
#99=LINE('',#622,#141);
#100=LINE('',#623,#142);
#101=LINE('',#624,#143);
#102=LINE('',#626,#144);
#103=LINE('',#628,#145);
#104=LINE('',#633,#146);
#105=LINE('',#634,#147);
#106=LINE('',#635,#148);
#107=LINE('',#637,#149);
#108=LINE('',#639,#150);
#109=LINE('',#643,#151);
#110=LINE('',#645,#152);
#111=LINE('',#646,#153);
#112=LINE('',#648,#154);
#113=LINE('',#650,#155);
#114=LINE('',#654,#156);
#115=LINE('',#655,#157);
#116=LINE('',#658,#158);
#117=LINE('',#659,#159);
#118=LINE('',#661,#160);
#119=LINE('',#664,#161);
#120=VECTOR('',#449,4.8);
#121=VECTOR('',#452,1000.);
#122=VECTOR('',#455,1000.);
#123=VECTOR('',#458,1000.);
#124=VECTOR('',#461,1000.);
#125=VECTOR('',#464,1000.);
#126=VECTOR('',#467,1000.);
#127=VECTOR('',#470,1000.);
#128=VECTOR('',#473,1000.);
#129=VECTOR('',#480,1000.);
#130=VECTOR('',#481,1000.);
#131=VECTOR('',#482,1000.);
#132=VECTOR('',#483,1000.);
#133=VECTOR('',#484,1000.);
#134=VECTOR('',#485,1000.);
#135=VECTOR('',#486,1000.);
#136=VECTOR('',#487,1000.);
#137=VECTOR('',#488,1000.);
#138=VECTOR('',#489,1000.);
#139=VECTOR('',#490,1000.);
#140=VECTOR('',#491,1000.);
#141=VECTOR('',#498,1000.);
#142=VECTOR('',#499,1000.);
#143=VECTOR('',#500,1000.);
#144=VECTOR('',#503,1000.);
#145=VECTOR('',#506,1000.);
#146=VECTOR('',#511,1000.);
#147=VECTOR('',#512,1000.);
#148=VECTOR('',#513,1000.);
#149=VECTOR('',#516,1000.);
#150=VECTOR('',#519,1000.);
#151=VECTOR('',#524,1000.);
#152=VECTOR('',#525,1000.);
#153=VECTOR('',#526,1000.);
#154=VECTOR('',#529,1000.);
#155=VECTOR('',#532,1000.);
#156=VECTOR('',#537,1000.);
#157=VECTOR('',#538,1000.);
#158=VECTOR('',#541,1000.);
#159=VECTOR('',#542,1000.);
#160=VECTOR('',#545,1000.);
#161=VECTOR('',#550,3.8);
#162=CIRCLE('',#409,4.8);
#163=CIRCLE('',#410,4.8);
#164=CIRCLE('',#411,4.8);
#165=CIRCLE('',#412,4.8);
#166=CIRCLE('',#413,4.8);
#167=CIRCLE('',#414,4.8);
#168=CIRCLE('',#415,4.8);
#169=CIRCLE('',#416,4.8);
#170=CIRCLE('',#417,4.8);
#171=CIRCLE('',#418,4.8);
#172=CIRCLE('',#419,4.8);
#173=CIRCLE('',#422,3.8);
#174=VERTEX_POINT('',#556);
#175=VERTEX_POINT('',#557);
#176=VERTEX_POINT('',#559);
#177=VERTEX_POINT('',#561);
#178=VERTEX_POINT('',#563);
#179=VERTEX_POINT('',#565);
#180=VERTEX_POINT('',#567);
#181=VERTEX_POINT('',#569);
#182=VERTEX_POINT('',#571);
#183=VERTEX_POINT('',#573);
#184=VERTEX_POINT('',#575);
#185=VERTEX_POINT('',#577);
#186=VERTEX_POINT('',#579);
#187=VERTEX_POINT('',#581);
#188=VERTEX_POINT('',#583);
#189=VERTEX_POINT('',#585);
#190=VERTEX_POINT('',#587);
#191=VERTEX_POINT('',#589);
#192=VERTEX_POINT('',#591);
#193=VERTEX_POINT('',#596);
#194=VERTEX_POINT('',#598);
#195=VERTEX_POINT('',#601);
#196=VERTEX_POINT('',#603);
#197=VERTEX_POINT('',#606);
#198=VERTEX_POINT('',#608);
#199=VERTEX_POINT('',#611);
#200=VERTEX_POINT('',#613);
#201=VERTEX_POINT('',#617);
#202=VERTEX_POINT('',#620);
#203=VERTEX_POINT('',#621);
#204=VERTEX_POINT('',#631);
#205=VERTEX_POINT('',#632);
#206=VERTEX_POINT('',#642);
#207=VERTEX_POINT('',#644);
#208=VERTEX_POINT('',#653);
#209=VERTEX_POINT('',#657);
#210=EDGE_CURVE('',#174,#175,#162,.F.);
#211=EDGE_CURVE('',#175,#176,#78,.T.);
#212=EDGE_CURVE('',#177,#176,#163,.F.);
#213=EDGE_CURVE('',#178,#177,#79,.T.);
#214=EDGE_CURVE('',#179,#178,#164,.F.);
#215=EDGE_CURVE('',#180,#179,#80,.F.);
#216=EDGE_CURVE('',#181,#180,#165,.F.);
#217=EDGE_CURVE('',#181,#182,#81,.F.);
#218=EDGE_CURVE('',#183,#182,#166,.F.);
#219=EDGE_CURVE('',#184,#183,#82,.F.);
#220=EDGE_CURVE('',#185,#184,#167,.F.);
#221=EDGE_CURVE('',#185,#186,#83,.F.);
#222=EDGE_CURVE('',#187,#186,#168,.F.);
#223=EDGE_CURVE('',#187,#188,#84,.T.);
#224=EDGE_CURVE('',#189,#188,#169,.F.);
#225=EDGE_CURVE('',#190,#189,#85,.T.);
#226=EDGE_CURVE('',#191,#190,#170,.F.);
#227=EDGE_CURVE('',#191,#192,#86,.T.);
#228=EDGE_CURVE('',#176,#192,#171,.F.);
#229=EDGE_CURVE('',#175,#174,#172,.F.);
#230=EDGE_CURVE('',#190,#193,#87,.T.);
#231=EDGE_CURVE('',#194,#193,#88,.T.);
#232=EDGE_CURVE('',#187,#194,#89,.T.);
#233=EDGE_CURVE('',#195,#186,#90,.T.);
#234=EDGE_CURVE('',#195,#196,#91,.T.);
#235=EDGE_CURVE('',#196,#183,#92,.T.);
#236=EDGE_CURVE('',#197,#182,#93,.T.);
#237=EDGE_CURVE('',#197,#198,#94,.T.);
#238=EDGE_CURVE('',#198,#179,#95,.T.);
#239=EDGE_CURVE('',#178,#199,#96,.T.);
#240=EDGE_CURVE('',#200,#199,#97,.T.);
#241=EDGE_CURVE('',#191,#200,#98,.T.);
#242=EDGE_CURVE('',#201,#201,#173,.T.);
#243=EDGE_CURVE('',#202,#203,#99,.T.);
#244=EDGE_CURVE('',#202,#194,#100,.T.);
#245=EDGE_CURVE('',#203,#193,#101,.T.);
#246=EDGE_CURVE('',#188,#202,#102,.T.);
#247=EDGE_CURVE('',#189,#203,#103,.T.);
#248=EDGE_CURVE('',#204,#205,#104,.T.);
#249=EDGE_CURVE('',#204,#200,#105,.T.);
#250=EDGE_CURVE('',#205,#199,#106,.T.);
#251=EDGE_CURVE('',#192,#204,#107,.T.);
#252=EDGE_CURVE('',#177,#205,#108,.T.);
#253=EDGE_CURVE('',#206,#197,#109,.T.);
#254=EDGE_CURVE('',#206,#207,#110,.T.);
#255=EDGE_CURVE('',#207,#198,#111,.T.);
#256=EDGE_CURVE('',#207,#180,#112,.T.);
#257=EDGE_CURVE('',#206,#181,#113,.T.);
#258=EDGE_CURVE('',#208,#185,#114,.T.);
#259=EDGE_CURVE('',#208,#195,#115,.T.);
#260=EDGE_CURVE('',#208,#209,#116,.T.);
#261=EDGE_CURVE('',#209,#196,#117,.T.);
#262=EDGE_CURVE('',#209,#184,#118,.T.);
#263=EDGE_CURVE('',#174,#201,#119,.T.);
#264=ORIENTED_EDGE('',*,*,#210,.T.);
#265=ORIENTED_EDGE('',*,*,#211,.T.);
#266=ORIENTED_EDGE('',*,*,#212,.F.);
#267=ORIENTED_EDGE('',*,*,#213,.F.);
#268=ORIENTED_EDGE('',*,*,#214,.F.);
#269=ORIENTED_EDGE('',*,*,#215,.F.);
#270=ORIENTED_EDGE('',*,*,#216,.F.);
#271=ORIENTED_EDGE('',*,*,#217,.T.);
#272=ORIENTED_EDGE('',*,*,#218,.F.);
#273=ORIENTED_EDGE('',*,*,#219,.F.);
#274=ORIENTED_EDGE('',*,*,#220,.F.);
#275=ORIENTED_EDGE('',*,*,#221,.T.);
#276=ORIENTED_EDGE('',*,*,#222,.F.);
#277=ORIENTED_EDGE('',*,*,#223,.T.);
#278=ORIENTED_EDGE('',*,*,#224,.F.);
#279=ORIENTED_EDGE('',*,*,#225,.F.);
#280=ORIENTED_EDGE('',*,*,#226,.F.);
#281=ORIENTED_EDGE('',*,*,#227,.T.);
#282=ORIENTED_EDGE('',*,*,#228,.F.);
#283=ORIENTED_EDGE('',*,*,#211,.F.);
#284=ORIENTED_EDGE('',*,*,#229,.T.);
#285=ORIENTED_EDGE('',*,*,#226,.T.);
#286=ORIENTED_EDGE('',*,*,#230,.T.);
#287=ORIENTED_EDGE('',*,*,#231,.F.);
#288=ORIENTED_EDGE('',*,*,#232,.F.);
#289=ORIENTED_EDGE('',*,*,#222,.T.);
#290=ORIENTED_EDGE('',*,*,#233,.F.);
#291=ORIENTED_EDGE('',*,*,#234,.T.);
#292=ORIENTED_EDGE('',*,*,#235,.T.);
#293=ORIENTED_EDGE('',*,*,#218,.T.);
#294=ORIENTED_EDGE('',*,*,#236,.F.);
#295=ORIENTED_EDGE('',*,*,#237,.T.);
#296=ORIENTED_EDGE('',*,*,#238,.T.);
#297=ORIENTED_EDGE('',*,*,#214,.T.);
#298=ORIENTED_EDGE('',*,*,#239,.T.);
#299=ORIENTED_EDGE('',*,*,#240,.F.);
#300=ORIENTED_EDGE('',*,*,#241,.F.);
#301=ORIENTED_EDGE('',*,*,#242,.T.);
#302=ORIENTED_EDGE('',*,*,#243,.F.);
#303=ORIENTED_EDGE('',*,*,#244,.T.);
#304=ORIENTED_EDGE('',*,*,#231,.T.);
#305=ORIENTED_EDGE('',*,*,#245,.F.);
#306=ORIENTED_EDGE('',*,*,#223,.F.);
#307=ORIENTED_EDGE('',*,*,#232,.T.);
#308=ORIENTED_EDGE('',*,*,#244,.F.);
#309=ORIENTED_EDGE('',*,*,#246,.F.);
#310=ORIENTED_EDGE('',*,*,#230,.F.);
#311=ORIENTED_EDGE('',*,*,#225,.T.);
#312=ORIENTED_EDGE('',*,*,#247,.T.);
#313=ORIENTED_EDGE('',*,*,#245,.T.);
#314=ORIENTED_EDGE('',*,*,#247,.F.);
#315=ORIENTED_EDGE('',*,*,#224,.T.);
#316=ORIENTED_EDGE('',*,*,#246,.T.);
#317=ORIENTED_EDGE('',*,*,#243,.T.);
#318=ORIENTED_EDGE('',*,*,#248,.F.);
#319=ORIENTED_EDGE('',*,*,#249,.T.);
#320=ORIENTED_EDGE('',*,*,#240,.T.);
#321=ORIENTED_EDGE('',*,*,#250,.F.);
#322=ORIENTED_EDGE('',*,*,#227,.F.);
#323=ORIENTED_EDGE('',*,*,#241,.T.);
#324=ORIENTED_EDGE('',*,*,#249,.F.);
#325=ORIENTED_EDGE('',*,*,#251,.F.);
#326=ORIENTED_EDGE('',*,*,#239,.F.);
#327=ORIENTED_EDGE('',*,*,#213,.T.);
#328=ORIENTED_EDGE('',*,*,#252,.T.);
#329=ORIENTED_EDGE('',*,*,#250,.T.);
#330=ORIENTED_EDGE('',*,*,#252,.F.);
#331=ORIENTED_EDGE('',*,*,#212,.T.);
#332=ORIENTED_EDGE('',*,*,#228,.T.);
#333=ORIENTED_EDGE('',*,*,#251,.T.);
#334=ORIENTED_EDGE('',*,*,#248,.T.);
#335=ORIENTED_EDGE('',*,*,#253,.F.);
#336=ORIENTED_EDGE('',*,*,#254,.T.);
#337=ORIENTED_EDGE('',*,*,#255,.T.);
#338=ORIENTED_EDGE('',*,*,#237,.F.);
#339=ORIENTED_EDGE('',*,*,#256,.T.);
#340=ORIENTED_EDGE('',*,*,#215,.T.);
#341=ORIENTED_EDGE('',*,*,#238,.F.);
#342=ORIENTED_EDGE('',*,*,#255,.F.);
#343=ORIENTED_EDGE('',*,*,#217,.F.);
#344=ORIENTED_EDGE('',*,*,#257,.F.);
#345=ORIENTED_EDGE('',*,*,#253,.T.);
#346=ORIENTED_EDGE('',*,*,#236,.T.);
#347=ORIENTED_EDGE('',*,*,#257,.T.);
#348=ORIENTED_EDGE('',*,*,#216,.T.);
#349=ORIENTED_EDGE('',*,*,#256,.F.);
#350=ORIENTED_EDGE('',*,*,#254,.F.);
#351=ORIENTED_EDGE('',*,*,#221,.F.);
#352=ORIENTED_EDGE('',*,*,#258,.F.);
#353=ORIENTED_EDGE('',*,*,#259,.T.);
#354=ORIENTED_EDGE('',*,*,#233,.T.);
#355=ORIENTED_EDGE('',*,*,#259,.F.);
#356=ORIENTED_EDGE('',*,*,#260,.T.);
#357=ORIENTED_EDGE('',*,*,#261,.T.);
#358=ORIENTED_EDGE('',*,*,#234,.F.);
#359=ORIENTED_EDGE('',*,*,#262,.T.);
#360=ORIENTED_EDGE('',*,*,#219,.T.);
#361=ORIENTED_EDGE('',*,*,#235,.F.);
#362=ORIENTED_EDGE('',*,*,#261,.F.);
#363=ORIENTED_EDGE('',*,*,#258,.T.);
#364=ORIENTED_EDGE('',*,*,#220,.T.);
#365=ORIENTED_EDGE('',*,*,#262,.F.);
#366=ORIENTED_EDGE('',*,*,#260,.F.);
#367=ORIENTED_EDGE('',*,*,#210,.F.);
#368=ORIENTED_EDGE('',*,*,#263,.T.);
#369=ORIENTED_EDGE('',*,*,#242,.F.);
#370=ORIENTED_EDGE('',*,*,#263,.F.);
#371=ORIENTED_EDGE('',*,*,#229,.F.);
#372=CYLINDRICAL_SURFACE('',#408,4.8);
#373=ADVANCED_FACE('',(#38),#372,.T.);
#374=ADVANCED_FACE('',(#39),#20,.F.);
#375=ADVANCED_FACE('',(#40),#21,.T.);
#376=ADVANCED_FACE('',(#41),#22,.F.);
#377=ADVANCED_FACE('',(#42),#23,.F.);
#378=ADVANCED_FACE('',(#43),#24,.T.);
#379=ADVANCED_FACE('',(#44),#25,.T.);
#380=ADVANCED_FACE('',(#45),#26,.F.);
#381=ADVANCED_FACE('',(#46),#27,.F.);
#382=ADVANCED_FACE('',(#47),#28,.T.);
#383=ADVANCED_FACE('',(#48),#29,.T.);
#384=ADVANCED_FACE('',(#49),#30,.T.);
#385=ADVANCED_FACE('',(#50),#31,.T.);
#386=ADVANCED_FACE('',(#51),#32,.F.);
#387=ADVANCED_FACE('',(#52),#33,.T.);
#388=ADVANCED_FACE('',(#53),#34,.F.);
#389=ADVANCED_FACE('',(#54),#35,.T.);
#390=ADVANCED_FACE('',(#55),#36,.T.);
#391=ADVANCED_FACE('',(#56),#37,.T.);
#392=ADVANCED_FACE('',(#57),#19,.T.);
#393=CLOSED_SHELL('',(#373,#374,#375,#376,#377,#378,#379,#380,#381,#382,
#383,#384,#385,#386,#387,#388,#389,#390,#391,#392));
#394=DERIVED_UNIT_ELEMENT(#396,1.);
#395=DERIVED_UNIT_ELEMENT(#673,-3.);
#396=(
MASS_UNIT()
NAMED_UNIT(*)
SI_UNIT(.KILO.,.GRAM.)
);
#397=DERIVED_UNIT((#394,#395));
#398=MEASURE_REPRESENTATION_ITEM('density measure',
POSITIVE_RATIO_MEASURE(7850.),#397);
#399=PROPERTY_DEFINITION_REPRESENTATION(#404,#401);
#400=PROPERTY_DEFINITION_REPRESENTATION(#405,#402);
#401=REPRESENTATION('material name',(#403),#670);
#402=REPRESENTATION('density',(#398),#670);
#403=DESCRIPTIVE_REPRESENTATION_ITEM('Steel','Steel');
#404=PROPERTY_DEFINITION('material property','material name',#685);
#405=PROPERTY_DEFINITION('material property','density of part',#685);
#406=AXIS2_PLACEMENT_3D('',#553,#441,#442);
#407=AXIS2_PLACEMENT_3D('',#554,#443,#444);
#408=AXIS2_PLACEMENT_3D('',#555,#445,#446);
#409=AXIS2_PLACEMENT_3D('',#558,#447,#448);
#410=AXIS2_PLACEMENT_3D('',#562,#450,#451);
#411=AXIS2_PLACEMENT_3D('',#566,#453,#454);
#412=AXIS2_PLACEMENT_3D('',#570,#456,#457);
#413=AXIS2_PLACEMENT_3D('',#574,#459,#460);
#414=AXIS2_PLACEMENT_3D('',#578,#462,#463);
#415=AXIS2_PLACEMENT_3D('',#582,#465,#466);
#416=AXIS2_PLACEMENT_3D('',#586,#468,#469);
#417=AXIS2_PLACEMENT_3D('',#590,#471,#472);
#418=AXIS2_PLACEMENT_3D('',#593,#474,#475);
#419=AXIS2_PLACEMENT_3D('',#594,#476,#477);
#420=AXIS2_PLACEMENT_3D('',#595,#478,#479);
#421=AXIS2_PLACEMENT_3D('',#616,#492,#493);
#422=AXIS2_PLACEMENT_3D('',#618,#494,#495);
#423=AXIS2_PLACEMENT_3D('',#619,#496,#497);
#424=AXIS2_PLACEMENT_3D('',#625,#501,#502);
#425=AXIS2_PLACEMENT_3D('',#627,#504,#505);
#426=AXIS2_PLACEMENT_3D('',#629,#507,#508);
#427=AXIS2_PLACEMENT_3D('',#630,#509,#510);
#428=AXIS2_PLACEMENT_3D('',#636,#514,#515);
#429=AXIS2_PLACEMENT_3D('',#638,#517,#518);
#430=AXIS2_PLACEMENT_3D('',#640,#520,#521);
#431=AXIS2_PLACEMENT_3D('',#641,#522,#523);
#432=AXIS2_PLACEMENT_3D('',#647,#527,#528);
#433=AXIS2_PLACEMENT_3D('',#649,#530,#531);
#434=AXIS2_PLACEMENT_3D('',#651,#533,#534);
#435=AXIS2_PLACEMENT_3D('',#652,#535,#536);
#436=AXIS2_PLACEMENT_3D('',#656,#539,#540);
#437=AXIS2_PLACEMENT_3D('',#660,#543,#544);
#438=AXIS2_PLACEMENT_3D('',#662,#546,#547);
#439=AXIS2_PLACEMENT_3D('',#663,#548,#549);
#440=AXIS2_PLACEMENT_3D('',#665,#551,#552);
#441=DIRECTION('axis',(0.,0.,1.));
#442=DIRECTION('refdir',(1.,0.,0.));
#443=DIRECTION('axis',(0.,0.,1.));
#444=DIRECTION('refdir',(1.,0.,0.));
#445=DIRECTION('center_axis',(1.224646799147E-16,1.110223024625E-16,1.));
#446=DIRECTION('ref_axis',(1.,0.,-1.224646799147E-16));
#447=DIRECTION('center_axis',(0.,0.,1.));
#448=DIRECTION('ref_axis',(1.,0.,0.));
#449=DIRECTION('',(-1.224646799147E-16,-1.110223024625E-16,-1.));
#450=DIRECTION('center_axis',(1.224646799147E-16,1.110223024625E-16,1.));
#451=DIRECTION('ref_axis',(1.,0.,-1.224646799147E-16));
#452=DIRECTION('',(1.224646799147E-16,1.110223024625E-16,1.));
#453=DIRECTION('center_axis',(0.,0.,1.));
#454=DIRECTION('ref_axis',(1.,0.,0.));
#455=DIRECTION('',(1.224646799147E-16,1.110223024625E-16,1.));
#456=DIRECTION('center_axis',(1.224646799147E-16,1.110223024625E-16,1.));
#457=DIRECTION('ref_axis',(1.,0.,-1.224646799147E-16));
#458=DIRECTION('',(1.224646799147E-16,1.110223024625E-16,1.));
#459=DIRECTION('center_axis',(0.,0.,1.));
#460=DIRECTION('ref_axis',(1.,0.,0.));
#461=DIRECTION('',(1.224646799147E-16,1.110223024625E-16,1.));
#462=DIRECTION('center_axis',(1.224646799147E-16,1.110223024625E-16,1.));
#463=DIRECTION('ref_axis',(1.,0.,-1.224646799147E-16));
#464=DIRECTION('',(1.224646799147E-16,1.110223024625E-16,1.));
#465=DIRECTION('center_axis',(0.,0.,1.));
#466=DIRECTION('ref_axis',(1.,0.,0.));
#467=DIRECTION('',(1.224646799147E-16,1.110223024625E-16,1.));
#468=DIRECTION('center_axis',(1.224646799147E-16,1.110223024625E-16,1.));
#469=DIRECTION('ref_axis',(1.,0.,-1.224646799147E-16));
#470=DIRECTION('',(1.224646799147E-16,1.110223024625E-16,1.));
#471=DIRECTION('center_axis',(0.,0.,1.));
#472=DIRECTION('ref_axis',(1.,0.,0.));
#473=DIRECTION('',(1.224646799147E-16,1.110223024625E-16,1.));
#474=DIRECTION('center_axis',(1.224646799147E-16,1.110223024625E-16,1.));
#475=DIRECTION('ref_axis',(1.,0.,-1.224646799147E-16));
#476=DIRECTION('center_axis',(0.,0.,1.));
#477=DIRECTION('ref_axis',(1.,0.,0.));
#478=DIRECTION('center_axis',(0.,0.,1.));
#479=DIRECTION('ref_axis',(1.,0.,0.));
#480=DIRECTION('',(0.,1.,0.));
#481=DIRECTION('',(-1.,0.,0.));
#482=DIRECTION('',(0.,1.,0.));
#483=DIRECTION('',(-1.,0.,0.));
#484=DIRECTION('',(0.,-1.,0.));
#485=DIRECTION('',(-1.,0.,0.));
#486=DIRECTION('',(0.,1.,0.));
#487=DIRECTION('',(-1.,0.,0.));
#488=DIRECTION('',(0.,1.,0.));
#489=DIRECTION('',(-1.,0.,0.));
#490=DIRECTION('',(0.,-1.,0.));
#491=DIRECTION('',(-1.,0.,0.));
#492=DIRECTION('center_axis',(1.224646799147E-16,1.110223024625E-16,1.));
#493=DIRECTION('ref_axis',(1.,-1.35963107344631E-32,-1.224646799147E-16));
#494=DIRECTION('center_axis',(1.224646799147E-16,1.110223024625E-16,1.));
#495=DIRECTION('ref_axis',(1.,0.,-1.224646799147E-16));
#496=DIRECTION('center_axis',(0.,-1.,0.));
#497=DIRECTION('ref_axis',(0.,0.,-1.));
#498=DIRECTION('',(-1.,0.,1.224646799147E-16));
#499=DIRECTION('',(0.,0.,-1.));
#500=DIRECTION('',(0.,0.,-1.));
#501=DIRECTION('center_axis',(-1.,0.,0.));
#502=DIRECTION('ref_axis',(0.,0.,1.));
#503=DIRECTION('',(0.,1.,-1.110223024625E-16));
#504=DIRECTION('center_axis',(-1.,0.,0.));
#505=DIRECTION('ref_axis',(0.,0.,1.));
#506=DIRECTION('',(0.,1.,-1.110223024625E-16));
#507=DIRECTION('center_axis',(1.224646799147E-16,1.110223024625E-16,1.));
#508=DIRECTION('ref_axis',(1.,-1.35963107344631E-32,-1.224646799147E-16));
#509=DIRECTION('center_axis',(1.,0.,0.));
#510=DIRECTION('ref_axis',(0.,0.,-1.));
#511=DIRECTION('',(0.,-1.,1.110223024625E-16));
#512=DIRECTION('',(0.,0.,-1.));
#513=DIRECTION('',(0.,0.,-1.));
#514=DIRECTION('center_axis',(0.,-1.,0.));
#515=DIRECTION('ref_axis',(0.,0.,-1.));
#516=DIRECTION('',(-1.,0.,1.224646799147E-16));
#517=DIRECTION('center_axis',(0.,-1.,0.));
#518=DIRECTION('ref_axis',(0.,0.,-1.));
#519=DIRECTION('',(-1.,0.,1.224646799147E-16));
#520=DIRECTION('center_axis',(1.224646799147E-16,1.110223024625E-16,1.));
#521=DIRECTION('ref_axis',(1.,-1.35963107344631E-32,-1.224646799147E-16));
#522=DIRECTION('center_axis',(0.,-1.,0.));
#523=DIRECTION('ref_axis',(0.,0.,-1.));
#524=DIRECTION('',(0.,0.,-1.));
#525=DIRECTION('',(-1.,0.,1.224646799147E-16));
#526=DIRECTION('',(0.,0.,-1.));
#527=DIRECTION('center_axis',(-1.,0.,0.));
#528=DIRECTION('ref_axis',(0.,0.,1.));
#529=DIRECTION('',(0.,1.,-1.110223024625E-16));
#530=DIRECTION('center_axis',(-1.,0.,0.));
#531=DIRECTION('ref_axis',(0.,0.,1.));
#532=DIRECTION('',(0.,1.,-1.110223024625E-16));
#533=DIRECTION('center_axis',(1.224646799147E-16,1.110223024625E-16,1.));
#534=DIRECTION('ref_axis',(1.,-1.35963107344631E-32,-1.224646799147E-16));
#535=DIRECTION('center_axis',(0.,-1.,0.));
#536=DIRECTION('ref_axis',(0.,0.,-1.));
#537=DIRECTION('',(-1.,0.,1.224646799147E-16));
#538=DIRECTION('',(0.,0.,-1.));
#539=DIRECTION('center_axis',(1.,0.,0.));
#540=DIRECTION('ref_axis',(0.,0.,-1.));
#541=DIRECTION('',(0.,-1.,1.110223024625E-16));
#542=DIRECTION('',(0.,0.,-1.));
#543=DIRECTION('center_axis',(0.,-1.,0.));
#544=DIRECTION('ref_axis',(0.,0.,-1.));
#545=DIRECTION('',(-1.,0.,1.224646799147E-16));
#546=DIRECTION('center_axis',(1.224646799147E-16,1.110223024625E-16,1.));
#547=DIRECTION('ref_axis',(1.,-1.35963107344631E-32,-1.224646799147E-16));
#548=DIRECTION('center_axis',(0.,0.,-1.));
#549=DIRECTION('ref_axis',(-1.,0.,0.));
#550=DIRECTION('',(-0.707106781186548,8.65956056235494E-17,0.707106781186547));
#551=DIRECTION('',(-5.55111512312578E-17,2.46519032881566E-32,1.));
#552=DIRECTION('',(0.999999999999999,1.23259516440783E-32,5.55111512312578E-17));
#553=CARTESIAN_POINT('',(0.,0.,0.));
#554=CARTESIAN_POINT('',(0.,0.,0.));
#555=CARTESIAN_POINT('Origin',(37.9988,8.5106,-242.393821135332));
#556=CARTESIAN_POINT('',(42.7988,8.5106,21.4238));
#557=CARTESIAN_POINT('',(33.1988,8.51060000000003,21.4238));
#558=CARTESIAN_POINT('Origin',(37.9988,8.5106,21.4238));
#559=CARTESIAN_POINT('',(33.1988,8.51060000000003,12.4238));
#560=CARTESIAN_POINT('',(33.1988,8.5106,-242.393821135332));
#561=CARTESIAN_POINT('',(33.2839299063495,7.6106,12.4238));
#562=CARTESIAN_POINT('Origin',(37.9988,8.5106,12.4238));
#563=CARTESIAN_POINT('',(33.2839299063495,7.6106,6.95));
#564=CARTESIAN_POINT('',(33.2839299063495,7.6106,-242.393821135332));
#565=CARTESIAN_POINT('',(37.0988,3.79572990634949,6.95));
#566=CARTESIAN_POINT('Origin',(37.9988,8.5106,6.95));
#567=CARTESIAN_POINT('',(37.0988,3.79572990634948,12.4238));
#568=CARTESIAN_POINT('',(37.0988,3.79572990634945,-242.393821135332));
#569=CARTESIAN_POINT('',(38.8988,3.79572990634948,12.4238));
#570=CARTESIAN_POINT('Origin',(37.9988,8.5106,12.4238));
#571=CARTESIAN_POINT('',(38.8988,3.79572990634948,6.95));
#572=CARTESIAN_POINT('',(38.8988,3.79572990634945,-242.393821135332));
#573=CARTESIAN_POINT('',(42.7136700936505,7.6106,6.95));
#574=CARTESIAN_POINT('Origin',(37.9988,8.5106,6.95));
#575=CARTESIAN_POINT('',(42.7136700936505,7.6106,12.4238));
#576=CARTESIAN_POINT('',(42.7136700936505,7.6106,-242.393821135332));
#577=CARTESIAN_POINT('',(42.7136700936505,9.4106,12.4238));
#578=CARTESIAN_POINT('Origin',(37.9988,8.5106,12.4238));
#579=CARTESIAN_POINT('',(42.7136700936505,9.4106,6.95));
#580=CARTESIAN_POINT('',(42.7136700936505,9.4106,-242.393821135332));
#581=CARTESIAN_POINT('',(38.8988,13.2254700936505,6.95));
#582=CARTESIAN_POINT('Origin',(37.9988,8.5106,6.95));
#583=CARTESIAN_POINT('',(38.8988,13.2254700936505,12.4238));
#584=CARTESIAN_POINT('',(38.8988,13.2254700936505,-242.393821135332));
#585=CARTESIAN_POINT('',(37.0988,13.2254700936505,12.4238));
#586=CARTESIAN_POINT('Origin',(37.9988,8.5106,12.4238));
#587=CARTESIAN_POINT('',(37.0988,13.2254700936505,6.95));
#588=CARTESIAN_POINT('',(37.0988,13.2254700936505,-242.393821135332));
#589=CARTESIAN_POINT('',(33.2839299063495,9.4106,6.95));
#590=CARTESIAN_POINT('Origin',(37.9988,8.5106,6.95));
#591=CARTESIAN_POINT('',(33.2839299063495,9.4106,12.4238));
#592=CARTESIAN_POINT('',(33.2839299063495,9.4106,-242.393821135332));
#593=CARTESIAN_POINT('Origin',(37.9988,8.5106,12.4238));
#594=CARTESIAN_POINT('Origin',(37.9988,8.5106,21.4238));
#595=CARTESIAN_POINT('Origin',(37.9988,8.5106,6.95));
#596=CARTESIAN_POINT('',(37.0988,14.4266797830996,6.95));
#597=CARTESIAN_POINT('',(37.0988,11.9186398915498,6.95));
#598=CARTESIAN_POINT('',(38.8988,14.4266797830996,6.95));
#599=CARTESIAN_POINT('',(37.9988,14.4266797830996,6.95));
#600=CARTESIAN_POINT('',(38.8988,11.9186398915498,6.95));
#601=CARTESIAN_POINT('',(43.9148797830995,9.4106,6.95));
#602=CARTESIAN_POINT('',(41.4068398915497,9.4106,6.95));
#603=CARTESIAN_POINT('',(43.9148797830995,7.6106,6.95));
#604=CARTESIAN_POINT('',(43.9148797830995,8.5106,6.95));
#605=CARTESIAN_POINT('',(41.4068398915497,7.6106,6.95));
#606=CARTESIAN_POINT('',(38.8988,2.59452021690033,6.95));
#607=CARTESIAN_POINT('',(38.8988,5.10256010845017,6.95));
#608=CARTESIAN_POINT('',(37.0988,2.59452021690033,6.95));
#609=CARTESIAN_POINT('',(37.9988,2.59452021690033,6.95));
#610=CARTESIAN_POINT('',(37.0988,5.10256010845017,6.95));
#611=CARTESIAN_POINT('',(32.0827202169004,7.6106,6.95));
#612=CARTESIAN_POINT('',(34.5907601084502,7.6106,6.95));
#613=CARTESIAN_POINT('',(32.0827202169004,9.4106,6.95));
#614=CARTESIAN_POINT('',(32.0827202169004,8.5106,6.95));
#615=CARTESIAN_POINT('',(34.5907601084502,9.4106,6.95));
#616=CARTESIAN_POINT('Origin',(2.74612348947125E-15,-1.,22.4238));
#617=CARTESIAN_POINT('',(41.7988,8.5106,22.4238));
#618=CARTESIAN_POINT('Origin',(37.9988,8.5106,22.4238));
#619=CARTESIAN_POINT('Origin',(37.9988,14.4266797830996,265.767621135332));
#620=CARTESIAN_POINT('',(38.8988,14.4266797830996,12.4238));
#621=CARTESIAN_POINT('',(37.0988,14.4266797830996,12.4238));
#622=CARTESIAN_POINT('',(37.9988,14.4266797830996,12.4238));
#623=CARTESIAN_POINT('',(38.8988,14.4266797830996,265.767621135332));
#624=CARTESIAN_POINT('',(37.0988,14.4266797830996,265.767621135332));
#625=CARTESIAN_POINT('Origin',(38.8988,11.9186398915498,265.767621135332));
#626=CARTESIAN_POINT('',(38.8988,11.9186398915497,12.4238));
#627=CARTESIAN_POINT('Origin',(37.0988,11.9186398915498,265.767621135332));
#628=CARTESIAN_POINT('',(37.0988,11.9186398915497,12.4238));
#629=CARTESIAN_POINT('Origin',(-1.22338464375755E-14,-1.,12.4238));
#630=CARTESIAN_POINT('Origin',(32.0827202169004,8.5106,265.767621135332));
#631=CARTESIAN_POINT('',(32.0827202169004,9.4106,12.4238));
#632=CARTESIAN_POINT('',(32.0827202169004,7.6106,12.4238));
#633=CARTESIAN_POINT('',(32.0827202169004,8.5106,12.4238));
#634=CARTESIAN_POINT('',(32.0827202169004,9.4106,265.767621135332));
#635=CARTESIAN_POINT('',(32.0827202169004,7.6106,265.767621135332));
#636=CARTESIAN_POINT('Origin',(34.5907601084502,9.4106,265.767621135332));
#637=CARTESIAN_POINT('',(34.5907601084501,9.4106,12.4238));
#638=CARTESIAN_POINT('Origin',(34.5907601084502,7.6106,265.767621135332));
#639=CARTESIAN_POINT('',(34.5907601084501,7.6106,12.4238));
#640=CARTESIAN_POINT('Origin',(-1.22338464375755E-14,-1.,12.4238));
#641=CARTESIAN_POINT('Origin',(37.9988,2.59452021690033,265.767621135332));
#642=CARTESIAN_POINT('',(38.8988,2.59452021690033,12.4238));
#643=CARTESIAN_POINT('',(38.8988,2.59452021690033,265.767621135332));
#644=CARTESIAN_POINT('',(37.0988,2.59452021690033,12.4238));
#645=CARTESIAN_POINT('',(37.9988,2.59452021690033,12.4238));
#646=CARTESIAN_POINT('',(37.0988,2.59452021690033,265.767621135332));
#647=CARTESIAN_POINT('Origin',(37.0988,5.10256010845017,265.767621135332));
#648=CARTESIAN_POINT('',(37.0988,5.10256010845014,12.4238));
#649=CARTESIAN_POINT('Origin',(38.8988,5.10256010845017,265.767621135332));
#650=CARTESIAN_POINT('',(38.8988,5.10256010845014,12.4238));
#651=CARTESIAN_POINT('Origin',(-1.22338464375755E-14,-1.,12.4238));
#652=CARTESIAN_POINT('Origin',(41.4068398915497,9.4106,265.767621135332));
#653=CARTESIAN_POINT('',(43.9148797830995,9.4106,12.4238));
#654=CARTESIAN_POINT('',(41.4068398915497,9.4106,12.4238));
#655=CARTESIAN_POINT('',(43.9148797830995,9.4106,265.767621135332));
#656=CARTESIAN_POINT('Origin',(43.9148797830995,8.5106,265.767621135332));
#657=CARTESIAN_POINT('',(43.9148797830995,7.6106,12.4238));
#658=CARTESIAN_POINT('',(43.9148797830995,8.5106,12.4238));
#659=CARTESIAN_POINT('',(43.9148797830995,7.6106,265.767621135332));
#660=CARTESIAN_POINT('Origin',(41.4068398915497,7.6106,265.767621135332));
#661=CARTESIAN_POINT('',(41.4068398915497,7.6106,12.4238));
#662=CARTESIAN_POINT('Origin',(-1.22338464375755E-14,-1.,12.4238));
#663=CARTESIAN_POINT('Origin',(37.9988,8.5106,22.4238));
#664=CARTESIAN_POINT('',(41.7988,8.5106,22.4238));
#665=CARTESIAN_POINT('',(1.38777878078144E-14,-7.49999999998997,5.00000000000999));
#666=UNCERTAINTY_MEASURE_WITH_UNIT(LENGTH_MEASURE(0.01),#672,
'DISTANCE_ACCURACY_VALUE',
'Maximum model space distance between geometric entities at asserted c
onnectivities');
#667=UNCERTAINTY_MEASURE_WITH_UNIT(LENGTH_MEASURE(0.01),#672,
'DISTANCE_ACCURACY_VALUE',
'Maximum model space distance between geometric entities at asserted c
onnectivities');
#668=UNCERTAINTY_MEASURE_WITH_UNIT(LENGTH_MEASURE(0.01),#672,
'DISTANCE_ACCURACY_VALUE',
'Maximum model space distance between geometric entities at asserted c
onnectivities');
#669=(
GEOMETRIC_REPRESENTATION_CONTEXT(3)
GLOBAL_UNCERTAINTY_ASSIGNED_CONTEXT((#666))
GLOBAL_UNIT_ASSIGNED_CONTEXT((#672,#674,#675))
REPRESENTATION_CONTEXT('','3D')
);
#670=(
GEOMETRIC_REPRESENTATION_CONTEXT(3)
GLOBAL_UNCERTAINTY_ASSIGNED_CONTEXT((#667))
GLOBAL_UNIT_ASSIGNED_CONTEXT((#672,#674,#675))
REPRESENTATION_CONTEXT('','3D')
);
#671=(
GEOMETRIC_REPRESENTATION_CONTEXT(3)
GLOBAL_UNCERTAINTY_ASSIGNED_CONTEXT((#668))
GLOBAL_UNIT_ASSIGNED_CONTEXT((#672,#674,#675))
REPRESENTATION_CONTEXT('','3D')
);
#672=(
LENGTH_UNIT()
NAMED_UNIT(*)
SI_UNIT(.MILLI.,.METRE.)
);
#673=(
LENGTH_UNIT()
NAMED_UNIT(*)
SI_UNIT($,.METRE.)
);
#674=(
NAMED_UNIT(*)
PLANE_ANGLE_UNIT()
SI_UNIT($,.RADIAN.)
);
#675=(
NAMED_UNIT(*)
SI_UNIT($,.STERADIAN.)
SOLID_ANGLE_UNIT()
);
#676=SHAPE_DEFINITION_REPRESENTATION(#678,#681);
#677=SHAPE_DEFINITION_REPRESENTATION(#679,#682);
#678=PRODUCT_DEFINITION_SHAPE('',$,#684);
#679=PRODUCT_DEFINITION_SHAPE('',$,#685);
#680=PRODUCT_DEFINITION_SHAPE($,$,#14);
#681=SHAPE_REPRESENTATION('',(#406,#440),#669);
#682=SHAPE_REPRESENTATION('',(#407),#670);
#683=PRODUCT_DEFINITION_CONTEXT('part definition',#691,'design');
#684=PRODUCT_DEFINITION('Shell Assembly','Shell Assembly v5',#686,#683);
#685=PRODUCT_DEFINITION('Button','Button',#687,#683);
#686=PRODUCT_DEFINITION_FORMATION('',$,#693);
#687=PRODUCT_DEFINITION_FORMATION('',$,#694);
#688=PRODUCT_RELATED_PRODUCT_CATEGORY('Shell Assembly v5',
'Shell Assembly v5',(#693));
#689=PRODUCT_RELATED_PRODUCT_CATEGORY('Button','Button',(#694));
#690=APPLICATION_PROTOCOL_DEFINITION('international standard',
'automotive_design',2009,#691);
#691=APPLICATION_CONTEXT(
'Core Data for Automotive Mechanical Design Process');
#692=PRODUCT_CONTEXT('part definition',#691,'mechanical');
#693=PRODUCT('Shell Assembly','Shell Assembly v5',
'STEP AP242 Edition 2',(#692));
#694=PRODUCT('Button','Button','Button',(#692));
#695=PRESENTATION_STYLE_ASSIGNMENT((#697));
#696=PRESENTATION_STYLE_ASSIGNMENT((#698));
#697=SURFACE_STYLE_USAGE(.BOTH.,#699);
#698=SURFACE_STYLE_USAGE(.BOTH.,#700);
#699=SURFACE_SIDE_STYLE('',(#701));
#700=SURFACE_SIDE_STYLE('',(#702));
#701=SURFACE_STYLE_FILL_AREA(#703);
#702=SURFACE_STYLE_FILL_AREA(#704);
#703=FILL_AREA_STYLE('Steel - Satin',(#705));
#704=FILL_AREA_STYLE('Opaque(255,0,0)',(#706));
#705=FILL_AREA_STYLE_COLOUR('Steel - Satin',#707);
#706=FILL_AREA_STYLE_COLOUR('Opaque(255,0,0)',#708);
#707=COLOUR_RGB('Steel - Satin',0.627450980392157,0.627450980392157,0.627450980392157);
#708=COLOUR_RGB('Opaque(255,0,0)',1.,0.,0.);
ENDSEC;
END-ISO-10303-21;
